<mxfile host="app.diagrams.net" modified="2023-12-18T14:39:24.160Z" agent="Mozilla/5.0 (X11; Linux x86_64) AppleWebKit/537.36 (KHTML, like Gecko) Chrome/119.0.0.0 Safari/537.36" version="22.1.11" etag="F4aNieW57LLGADT5myit" type="github">
  <diagram name="Page-1" id="DpSr7BmsZx4WjjoLn0mi">
    <mxGraphModel>
      <root>
        <mxCell id="0" />
        <mxCell id="1" parent="0" />
      </root>
    </mxGraphModel>
  </diagram>
</mxfile>
